static unsigned char MAKE_RESOURCE_DATA[] =
{
	0x4D,0x54,0x68,0x64,0x00,0x00,0x00,0x06,0x00,0x01,0x00,0x31,0x01,0xE0,0x4D,0x54,0x72,0x6B,0x00,0x00,0x00,0x21,0x00,0xFF,0x03,0x00,0x00,0xFF,
	0x51,0x03,0x07,0xA1,0x20,0x00,0xFF,0x58,0x04,0x03,0x02,0x18,0x08,0x81,0xEC,0x20,0xFF,0x58,0x04,0x04,0x02,0x18,0x08,0x00,0xFF,0x2F,0x00,0x4D,
	0x54,0x72,0x6B,0x00,0x00,0x00,0x15,0x00,0xFF,0x03,0x06,0x54,0x72,0x61,0x63,0x6B,0x31,0x00,0xFF,0x51,0x03,0x07,0xA1,0x20,0x00,0xFF,0x2F,0x00,
	0x4D,0x54,0x72,0x6B,0x00,0x00,0x00,0x0E,0x00,0xFF,0x03,0x06,0x54,0x72,0x61,0x63,0x6B,0x32,0x00,0xFF,0x2F,0x00,0x4D,0x54,0x72,0x6B,0x00,0x00,
	0x00,0x0E,0x00,0xFF,0x03,0x06,0x54,0x72,0x61,0x63,0x6B,0x33,0x00,0xFF,0x2F,0x00,0x4D,0x54,0x72,0x6B,0x00,0x00,0x00,0x0E,0x00,0xFF,0x03,0x06,
	0x54,0x72,0x61,0x63,0x6B,0x34,0x00,0xFF,0x2F,0x00,0x4D,0x54,0x72,0x6B,0x00,0x00,0x03,0x19,0x00,0xFF,0x03,0x06,0x54,0x72,0x61,0x63,0x6B,0x35,
	0x00,0xB4,0x5B,0x76,0x00,0xB4,0x00,0x00,0x00,0xB4,0x20,0x01,0x00,0xC4,0x0B,0x87,0x40,0x94,0x4A,0x64,0x83,0x32,0x94,0x4A,0x00,0x2E,0x94,0x4F,
	0x64,0x00,0x94,0x47,0x64,0x83,0x32,0x94,0x4F,0x00,0x00,0x94,0x47,0x00,0x2E,0x94,0x4F,0x64,0x81,0x59,0x94,0x4F,0x00,0x17,0x94,0x51,0x64,0x81,
	0x59,0x94,0x51,0x00,0x17,0x94,0x4F,0x64,0x81,0x59,0x94,0x4F,0x00,0x17,0x94,0x4E,0x64,0x81,0x59,0x94,0x4E,0x00,0x17,0x94,0x4C,0x64,0x83,0x32,
	0x94,0x4C,0x00,0x2E,0x94,0x4C,0x64,0x83,0x32,0x94,0x4C,0x00,0x2E,0x94,0x4C,0x64,0x83,0x32,0x94,0x4C,0x00,0x2E,0x94,0x51,0x64,0x00,0x94,0x49,
	0x64,0x83,0x32,0x94,0x51,0x00,0x2E,0x94,0x51,0x64,0x81,0x59,0x94,0x51,0x00,0x17,0x94,0x53,0x64,0x81,0x59,0x94,0x53,0x00,0x17,0x94,0x51,0x64,
	0x81,0x59,0x94,0x51,0x00,0x17,0x94,0x4F,0x64,0x67,0x94,0x49,0x00,0x72,0x94,0x4F,0x00,0x17,0x94,0x4E,0x64,0x00,0x94,0x4A,0x64,0x83,0x32,0x94,
	0x4E,0x00,0x00,0x94,0x4A,0x00,0x2E,0x94,0x4A,0x64,0x28,0xB4,0x5B,0x74,0x83,0x0A,0x94,0x4A,0x00,0x2E,0x94,0x4A,0x64,0x83,0x32,0x94,0x4A,0x00,
	0x2E,0x94,0x53,0x64,0x00,0x94,0x4B,0x64,0x83,0x32,0x94,0x53,0x00,0x2E,0x94,0x53,0x64,0x81,0x59,0x94,0x53,0x00,0x17,0x94,0x54,0x64,0x81,0x59,
	0x94,0x54,0x00,0x17,0x94,0x53,0x64,0x81,0x59,0x94,0x53,0x00,0x17,0x94,0x51,0x64,0x67,0x94,0x4B,0x00,0x72,0x94,0x51,0x00,0x17,0x94,0x4F,0x64,
	0x83,0x32,0x94,0x4F,0x00,0x2E,0x94,0x4C,0x64,0x83,0x32,0x94,0x4C,0x00,0x2E,0x94,0x4A,0x64,0x81,0x59,0x94,0x4A,0x00,0x17,0x94,0x4A,0x64,0x81,
	0x59,0x94,0x4A,0x00,0x17,0x94,0x4C,0x64,0x00,0x94,0x48,0x64,0x83,0x32,0x94,0x4C,0x00,0x00,0x94,0x48,0x00,0x2E,0x94,0x51,0x64,0x83,0x32,0x94,
	0x51,0x00,0x2E,0x94,0x4E,0x64,0x00,0x94,0x48,0x64,0x83,0x32,0x94,0x4E,0x00,0x00,0x94,0x48,0x00,0x2E,0xB4,0x00,0x00,0x00,0xB4,0x20,0x01,0x00,
	0x94,0x4F,0x64,0x00,0x94,0x47,0x64,0x86,0x64,0x94,0x4F,0x00,0x00,0x94,0x47,0x00,0x5C,0x94,0x4A,0x64,0x83,0x32,0x94,0x4A,0x00,0x2E,0x94,0x4F,
	0x64,0x00,0x94,0x47,0x64,0x83,0x32,0x94,0x4F,0x00,0x00,0x94,0x47,0x00,0x2E,0x94,0x4F,0x64,0x00,0x94,0x47,0x64,0x83,0x32,0x94,0x4F,0x00,0x00,
	0x94,0x47,0x00,0x2E,0x94,0x4F,0x64,0x00,0x94,0x47,0x64,0x83,0x32,0x94,0x4F,0x00,0x00,0x94,0x47,0x00,0x2E,0x94,0x4E,0x64,0x00,0x94,0x4A,0x64,
	0x86,0x64,0x94,0x4E,0x00,0x00,0x94,0x4A,0x00,0x5C,0x94,0x4E,0x64,0x00,0x94,0x47,0x64,0x83,0x32,0x94,0x4E,0x00,0x00,0x94,0x47,0x00,0x2E,0x94,
	0x4F,0x64,0x00,0x94,0x47,0x64,0x83,0x32,0x94,0x4F,0x00,0x00,0x94,0x47,0x00,0x2E,0x94,0x4E,0x64,0x00,0x94,0x4A,0x64,0x83,0x32,0x94,0x4E,0x00,
	0x00,0x94,0x4A,0x00,0x2E,0x94,0x4C,0x64,0x00,0x94,0x49,0x64,0x83,0x32,0x94,0x4C,0x00,0x00,0x94,0x49,0x00,0x2E,0x94,0x4A,0x64,0x86,0x64,0x94,
	0x4A,0x00,0x5C,0x94,0x51,0x64,0x83,0x32,0x94,0x51,0x00,0x2E,0x94,0x53,0x64,0x83,0x32,0x94,0x53,0x00,0x2E,0x94,0x51,0x64,0x81,0x59,0x94,0x51,
	0x00,0x17,0x94,0x51,0x64,0x81,0x59,0x94,0x51,0x00,0x17,0x94,0x4F,0x64,0x81,0x59,0x94,0x4F,0x00,0x17,0x94,0x4F,0x64,0x81,0x59,0x94,0x4F,0x00,
	0x17,0x94,0x56,0x64,0x86,0x64,0x94,0x56,0x00,0x5C,0x94,0x4A,0x64,0x83,0x32,0x94,0x4A,0x00,0x2E,0x94,0x4C,0x64,0x83,0x32,0x94,0x4C,0x00,0x2E,
	0x94,0x51,0x64,0x00,0x94,0x48,0x64,0x83,0x32,0x94,0x51,0x00,0x00,0x94,0x48,0x00,0x2E,0x94,0x4E,0x64,0x00,0x94,0x4A,0x64,0x83,0x32,0x94,0x4E,
	0x00,0x00,0x94,0x4A,0x00,0x2E,0x94,0x4F,0x64,0x00,0x94,0x47,0x64,0x86,0x64,0x94,0x4F,0x00,0x00,0x94,0x47,0x00,0x5C,0x94,0x4A,0x64,0x83,0x32,
	0x94,0x4A,0x00,0x2E,0x94,0x4F,0x64,0x00,0x94,0x47,0x64,0x83,0x32,0x94,0x4F,0x00,0x00,0x94,0x47,0x00,0x2E,0x94,0x4F,0x64,0x81,0x59,0x94,0x4F,
	0x00,0x17,0x94,0x51,0x64,0x81,0x59,0x94,0x51,0x00,0x17,0x94,0x4F,0x64,0x81,0x59,0x94,0x4F,0x00,0x17,0x94,0x4E,0x64,0x81,0x59,0x94,0x4E,0x00,
	0x17,0x94,0x4C,0x64,0x83,0x32,0x94,0x4C,0x00,0x2E,0x94,0x4C,0x64,0x83,0x32,0x94,0x4C,0x00,0x2E,0x94,0x4A,0x64,0x83,0x32,0x94,0x4A,0x00,0x2E,
	0x94,0x4C,0x64,0x00,0x94,0x48,0x64,0x83,0x32,0x94,0x4C,0x00,0x2E,0x94,0x51,0x64,0x83,0x32,0x94,0x51,0x00,0x2E,0x94,0x4E,0x64,0x82,0x57,0x94,
	0x48,0x00,0x5B,0x94,0x4E,0x00,0x2E,0x94,0x4F,0x64,0x00,0x94,0x47,0x64,0x86,0x64,0x94,0x4F,0x00,0x00,0x94,0x47,0x00,0x00,0xFF,0x2F,0x00,0x4D,
	0x54,0x72,0x6B,0x00,0x00,0x02,0x53,0x00,0xFF,0x03,0x06,0x54,0x72,0x61,0x63,0x6B,0x36,0x00,0xB5,0x00,0x00,0x00,0xB5,0x20,0x01,0x00,0xC5,0x0A,
	0x8B,0x20,0x95,0x37,0x64,0x83,0x32,0x95,0x37,0x00,0x2E,0x95,0x3E,0x64,0x83,0x32,0x95,0x3E,0x00,0x2E,0x95,0x37,0x64,0x83,0x32,0x95,0x37,0x00,
	0x2E,0x95,0x3C,0x64,0x83,0x32,0x95,0x3C,0x00,0x2E,0x95,0x43,0x64,0x83,0x32,0x95,0x43,0x00,0x2E,0x95,0x3C,0x64,0x83,0x32,0x95,0x3C,0x00,0x2E,
	0x95,0x39,0x64,0x83,0x32,0x95,0x39,0x00,0x2E,0x95,0x40,0x64,0x83,0x32,0x95,0x40,0x00,0x2E,0x95,0x39,0x64,0x83,0x32,0x95,0x39,0x00,0x2E,0x95,
	0x3E,0x64,0x83,0x32,0x95,0x3E,0x00,0x2E,0x95,0x42,0x64,0x00,0x95,0x45,0x64,0x83,0x60,0x95,0x3C,0x64,0x83,0x04,0x95,0x42,0x00,0x00,0x95,0x45,
	0x00,0x2E,0x95,0x3C,0x00,0x2E,0x95,0x3B,0x64,0x83,0x32,0x95,0x3B,0x00,0x2E,0x95,0x45,0x64,0x83,0x32,0x95,0x45,0x00,0x2E,0x95,0x3B,0x64,0x83,
	0x32,0x95,0x3B,0x00,0x2E,0x95,0x40,0x64,0x83,0x60,0x95,0x43,0x64,0x00,0x95,0x47,0x64,0x83,0x04,0x95,0x40,0x00,0x5C,0x95,0x3E,0x64,0x83,0x04,
	0x95,0x43,0x00,0x00,0x95,0x47,0x00,0x2E,0x95,0x3E,0x00,0x2E,0x95,0x3C,0x64,0x00,0x95,0x45,0x64,0x86,0x64,0x95,0x3C,0x00,0x00,0x95,0x45,0x00,
	0x5C,0x95,0x3E,0x64,0x00,0x95,0x45,0x64,0x83,0x32,0x95,0x3E,0x00,0x00,0x95,0x45,0x00,0x2E,0x95,0x43,0x64,0x83,0x32,0x95,0x43,0x00,0x2E,0x95,
	0x37,0x64,0x83,0x32,0x95,0x37,0x00,0x84,0x0E,0x95,0x43,0x64,0x8A,0x17,0x95,0x43,0x00,0x81,0x09,0x95,0x3E,0x64,0x83,0x32,0x95,0x3E,0x00,0x2E,
	0x95,0x45,0x64,0x83,0x32,0x95,0x45,0x00,0x2E,0x95,0x3E,0x64,0x83,0x32,0x95,0x3E,0x00,0x2E,0x95,0x40,0x64,0x83,0x32,0x95,0x40,0x00,0x2E,0x95,
	0x45,0x64,0x83,0x32,0x95,0x45,0x00,0x2E,0x95,0x43,0x64,0x00,0x95,0x39,0x64,0x83,0x32,0x95,0x43,0x00,0x00,0x95,0x39,0x00,0x2E,0x95,0x42,0x64,
	0x00,0x95,0x3E,0x64,0x83,0x32,0x95,0x42,0x00,0x2E,0x95,0x45,0x64,0x83,0x32,0x95,0x45,0x00,0x2E,0x95,0x42,0x64,0x82,0x57,0x95,0x3E,0x00,0x5B,
	0x95,0x42,0x00,0x2E,0x95,0x43,0x64,0x00,0x95,0x4A,0x64,0x83,0x32,0x95,0x43,0x00,0x2E,0x95,0x42,0x64,0x83,0x04,0x95,0x4A,0x00,0x2E,0x95,0x42,
	0x00,0x2E,0x95,0x40,0x64,0x00,0x95,0x49,0x64,0x83,0x32,0x95,0x40,0x00,0x00,0x95,0x49,0x00,0x2E,0x95,0x4A,0x64,0x00,0x95,0x42,0x64,0x83,0x60,
	0x95,0x3E,0x64,0x83,0x04,0x95,0x4A,0x00,0x00,0x95,0x42,0x00,0x2E,0x95,0x3E,0x00,0x2E,0x95,0x3B,0x64,0x00,0x95,0x43,0x64,0x83,0x32,0x95,0x3B,
	0x00,0x00,0x95,0x43,0x00,0x2E,0x95,0x3C,0x64,0x83,0x32,0x95,0x3C,0x00,0x2E,0x95,0x39,0x64,0x83,0x32,0x95,0x39,0x00,0x2E,0x95,0x3E,0x64,0x83,
	0x32,0x95,0x3E,0x00,0x2E,0x95,0x43,0x64,0x83,0x32,0x95,0x43,0x00,0x2E,0x95,0x37,0x64,0x83,0x32,0x95,0x37,0x00,0x84,0x0E,0x95,0x37,0x64,0x81,
	0x59,0x95,0x37,0x00,0x17,0x95,0x3B,0x64,0x81,0x59,0x95,0x3B,0x00,0x17,0x95,0x3E,0x64,0x86,0x64,0x95,0x3E,0x00,0x5C,0x95,0x3C,0x64,0x81,0x59,
	0x95,0x3C,0x00,0x17,0x95,0x40,0x64,0x81,0x59,0x95,0x40,0x00,0x17,0x95,0x43,0x64,0x83,0x32,0x95,0x43,0x00,0x2E,0x95,0x47,0x64,0x83,0x32,0x95,
	0x47,0x00,0x2E,0x95,0x45,0x64,0x83,0x32,0x95,0x45,0x00,0x2E,0x95,0x4A,0x64,0x83,0x32,0x95,0x4A,0x00,0x2E,0x95,0x3E,0x64,0x83,0x32,0x95,0x3E,
	0x00,0x2E,0x95,0x43,0x64,0x86,0x64,0x95,0x43,0x00,0x00,0xFF,0x2F,0x00,0x4D,0x54,0x72,0x6B,0x00,0x00,0x00,0x0E,0x00,0xFF,0x03,0x06,0x54,0x72,
	0x61,0x63,0x6B,0x37,0x00,0xFF,0x2F,0x00,0x4D,0x54,0x72,0x6B,0x00,0x00,0x00,0x0E,0x00,0xFF,0x03,0x06,0x54,0x72,0x61,0x63,0x6B,0x38,0x00,0xFF,
	0x2F,0x00,0x4D,0x54,0x72,0x6B,0x00,0x00,0x00,0x0E,0x00,0xFF,0x03,0x06,0x54,0x72,0x61,0x63,0x6B,0x39,0x00,0xFF,0x2F,0x00,0x4D,0x54,0x72,0x6B,
	0x00,0x00,0x00,0x0F,0x00,0xFF,0x03,0x07,0x54,0x72,0x61,0x63,0x6B,0x31,0x30,0x00,0xFF,0x2F,0x00,0x4D,0x54,0x72,0x6B,0x00,0x00,0x00,0x0F,0x00,
	0xFF,0x03,0x07,0x54,0x72,0x61,0x63,0x6B,0x31,0x31,0x00,0xFF,0x2F,0x00,0x4D,0x54,0x72,0x6B,0x00,0x00,0x00,0x0F,0x00,0xFF,0x03,0x07,0x54,0x72,
	0x61,0x63,0x6B,0x31,0x32,0x00,0xFF,0x2F,0x00,0x4D,0x54,0x72,0x6B,0x00,0x00,0x00,0x0F,0x00,0xFF,0x03,0x07,0x54,0x72,0x61,0x63,0x6B,0x31,0x33,
	0x00,0xFF,0x2F,0x00,0x4D,0x54,0x72,0x6B,0x00,0x00,0x00,0x0F,0x00,0xFF,0x03,0x07,0x54,0x72,0x61,0x63,0x6B,0x31,0x34,0x00,0xFF,0x2F,0x00,0x4D,
	0x54,0x72,0x6B,0x00,0x00,0x00,0x0F,0x00,0xFF,0x03,0x07,0x54,0x72,0x61,0x63,0x6B,0x31,0x35,0x00,0xFF,0x2F,0x00,0x4D,0x54,0x72,0x6B,0x00,0x00,
	0x00,0x0F,0x00,0xFF,0x03,0x07,0x54,0x72,0x61,0x63,0x6B,0x31,0x36,0x00,0xFF,0x2F,0x00,0x4D,0x54,0x72,0x6B,0x00,0x00,0x00,0x0F,0x00,0xFF,0x03,
	0x07,0x54,0x72,0x61,0x63,0x6B,0x31,0x37,0x00,0xFF,0x2F,0x00,0x4D,0x54,0x72,0x6B,0x00,0x00,0x00,0x0F,0x00,0xFF,0x03,0x07,0x54,0x72,0x61,0x63,
	0x6B,0x31,0x38,0x00,0xFF,0x2F,0x00,0x4D,0x54,0x72,0x6B,0x00,0x00,0x00,0x0F,0x00,0xFF,0x03,0x07,0x54,0x72,0x61,0x63,0x6B,0x31,0x39,0x00,0xFF,
	0x2F,0x00,0x4D,0x54,0x72,0x6B,0x00,0x00,0x00,0x0F,0x00,0xFF,0x03,0x07,0x54,0x72,0x61,0x63,0x6B,0x32,0x30,0x00,0xFF,0x2F,0x00,0x4D,0x54,0x72,
	0x6B,0x00,0x00,0x00,0x0F,0x00,0xFF,0x03,0x07,0x54,0x72,0x61,0x63,0x6B,0x32,0x31,0x00,0xFF,0x2F,0x00,0x4D,0x54,0x72,0x6B,0x00,0x00,0x00,0x0F,
	0x00,0xFF,0x03,0x07,0x54,0x72,0x61,0x63,0x6B,0x32,0x32,0x00,0xFF,0x2F,0x00,0x4D,0x54,0x72,0x6B,0x00,0x00,0x00,0x0F,0x00,0xFF,0x03,0x07,0x54,
	0x72,0x61,0x63,0x6B,0x32,0x33,0x00,0xFF,0x2F,0x00,0x4D,0x54,0x72,0x6B,0x00,0x00,0x00,0x0F,0x00,0xFF,0x03,0x07,0x54,0x72,0x61,0x63,0x6B,0x32,
	0x34,0x00,0xFF,0x2F,0x00,0x4D,0x54,0x72,0x6B,0x00,0x00,0x00,0x0F,0x00,0xFF,0x03,0x07,0x54,0x72,0x61,0x63,0x6B,0x32,0x35,0x00,0xFF,0x2F,0x00,
	0x4D,0x54,0x72,0x6B,0x00,0x00,0x00,0x0F,0x00,0xFF,0x03,0x07,0x54,0x72,0x61,0x63,0x6B,0x32,0x36,0x00,0xFF,0x2F,0x00,0x4D,0x54,0x72,0x6B,0x00,
	0x00,0x00,0x0F,0x00,0xFF,0x03,0x07,0x54,0x72,0x61,0x63,0x6B,0x32,0x37,0x00,0xFF,0x2F,0x00,0x4D,0x54,0x72,0x6B,0x00,0x00,0x00,0x0F,0x00,0xFF,
	0x03,0x07,0x54,0x72,0x61,0x63,0x6B,0x32,0x38,0x00,0xFF,0x2F,0x00,0x4D,0x54,0x72,0x6B,0x00,0x00,0x00,0x0F,0x00,0xFF,0x03,0x07,0x54,0x72,0x61,
	0x63,0x6B,0x32,0x39,0x00,0xFF,0x2F,0x00,0x4D,0x54,0x72,0x6B,0x00,0x00,0x00,0x0F,0x00,0xFF,0x03,0x07,0x54,0x72,0x61,0x63,0x6B,0x33,0x30,0x00,
	0xFF,0x2F,0x00,0x4D,0x54,0x72,0x6B,0x00,0x00,0x00,0x0F,0x00,0xFF,0x03,0x07,0x54,0x72,0x61,0x63,0x6B,0x33,0x31,0x00,0xFF,0x2F,0x00,0x4D,0x54,
	0x72,0x6B,0x00,0x00,0x00,0x0F,0x00,0xFF,0x03,0x07,0x54,0x72,0x61,0x63,0x6B,0x33,0x32,0x00,0xFF,0x2F,0x00,0x4D,0x54,0x72,0x6B,0x00,0x00,0x00,
	0x0F,0x00,0xFF,0x03,0x07,0x54,0x72,0x61,0x63,0x6B,0x33,0x33,0x00,0xFF,0x2F,0x00,0x4D,0x54,0x72,0x6B,0x00,0x00,0x00,0x0F,0x00,0xFF,0x03,0x07,
	0x54,0x72,0x61,0x63,0x6B,0x33,0x34,0x00,0xFF,0x2F,0x00,0x4D,0x54,0x72,0x6B,0x00,0x00,0x00,0x0F,0x00,0xFF,0x03,0x07,0x54,0x72,0x61,0x63,0x6B,
	0x33,0x35,0x00,0xFF,0x2F,0x00,0x4D,0x54,0x72,0x6B,0x00,0x00,0x00,0x0F,0x00,0xFF,0x03,0x07,0x54,0x72,0x61,0x63,0x6B,0x33,0x36,0x00,0xFF,0x2F,
	0x00,0x4D,0x54,0x72,0x6B,0x00,0x00,0x00,0x0F,0x00,0xFF,0x03,0x07,0x54,0x72,0x61,0x63,0x6B,0x33,0x37,0x00,0xFF,0x2F,0x00,0x4D,0x54,0x72,0x6B,
	0x00,0x00,0x00,0x0F,0x00,0xFF,0x03,0x07,0x54,0x72,0x61,0x63,0x6B,0x33,0x38,0x00,0xFF,0x2F,0x00,0x4D,0x54,0x72,0x6B,0x00,0x00,0x00,0x0F,0x00,
	0xFF,0x03,0x07,0x54,0x72,0x61,0x63,0x6B,0x33,0x39,0x00,0xFF,0x2F,0x00,0x4D,0x54,0x72,0x6B,0x00,0x00,0x00,0x0F,0x00,0xFF,0x03,0x07,0x54,0x72,
	0x61,0x63,0x6B,0x34,0x30,0x00,0xFF,0x2F,0x00,0x4D,0x54,0x72,0x6B,0x00,0x00,0x00,0x0F,0x00,0xFF,0x03,0x07,0x54,0x72,0x61,0x63,0x6B,0x34,0x31,
	0x00,0xFF,0x2F,0x00,0x4D,0x54,0x72,0x6B,0x00,0x00,0x00,0x0F,0x00,0xFF,0x03,0x07,0x54,0x72,0x61,0x63,0x6B,0x34,0x32,0x00,0xFF,0x2F,0x00,0x4D,
	0x54,0x72,0x6B,0x00,0x00,0x00,0x0F,0x00,0xFF,0x03,0x07,0x54,0x72,0x61,0x63,0x6B,0x34,0x33,0x00,0xFF,0x2F,0x00,0x4D,0x54,0x72,0x6B,0x00,0x00,
	0x00,0x0F,0x00,0xFF,0x03,0x07,0x54,0x72,0x61,0x63,0x6B,0x34,0x34,0x00,0xFF,0x2F,0x00,0x4D,0x54,0x72,0x6B,0x00,0x00,0x00,0x0F,0x00,0xFF,0x03,
	0x07,0x54,0x72,0x61,0x63,0x6B,0x34,0x35,0x00,0xFF,0x2F,0x00,0x4D,0x54,0x72,0x6B,0x00,0x00,0x00,0x0F,0x00,0xFF,0x03,0x07,0x54,0x72,0x61,0x63,
	0x6B,0x34,0x36,0x00,0xFF,0x2F,0x00,0x4D,0x54,0x72,0x6B,0x00,0x00,0x00,0x0F,0x00,0xFF,0x03,0x07,0x54,0x72,0x61,0x63,0x6B,0x34,0x37,0x00,0xFF,
	0x2F,0x00,0x4D,0x54,0x72,0x6B,0x00,0x00,0x00,0x0F,0x00,0xFF,0x03,0x07,0x54,0x72,0x61,0x63,0x6B,0x34,0x38,0x00,0xFF,0x2F,0x00,
};

namespace res_music {
	unsigned char const * MakeResourceBuffer() { return MAKE_RESOURCE_DATA; }
	unsigned MakeResourceSize() { return sizeof(MAKE_RESOURCE_DATA); }
}